<svg width="1920" height="900" viewBox="0 0 1920 900" fill="none" xmlns="http://www.w3.org/2000/svg">
<g opacity="0.23">
<path d="M-78 90L-2.93333 180C72.1333 270 222.267 450 372.4 509.906C522.533 570.938 672.667 509.062 822.8 525.094C972.933 540 1123.07 630 1273.2 630C1423.33 630 1573.47 540 1723.6 435.094C1873.73 329.062 2023.87 210.938 2098.93 149.906L2174 90V900H2098.93C2023.87 900 1873.73 900 1723.6 900C1573.47 900 1423.33 900 1273.2 900C1123.07 900 972.933 900 822.8 900C672.667 900 522.533 900 372.4 900C222.267 900 72.1333 900 -2.93333 900H-78V90Z" fill="#0D0D0D"/>
</g>
</svg>
